<svg version="1.2" xmlns="http://www.w3.org/2000/svg" viewBox="0 0 512 512" width="512" height="512">
	<defs>
		<linearGradient id="g1" x2="1" gradientUnits="userSpaceOnUse" gradientTransform="matrix(-634.216,576.12,-260.101,-286.33,632.576,94.052)">
			<stop offset="0" stop-color="#35cdee"/>
			<stop offset=".518" stop-color="#117fdd"/>
			<stop offset="1" stop-color="#051f63"/>
		</linearGradient>
		<linearGradient id="g2" x2="1" gradientUnits="userSpaceOnUse" gradientTransform="matrix(-634.198,576.104,-260.108,-286.337,720.906,223.642)">
			<stop offset="0" stop-color="#35cdee"/>
			<stop offset=".518" stop-color="#117fdd"/>
			<stop offset="1" stop-color="#051f63"/>
		</linearGradient>
		<linearGradient id="g3" x2="1" gradientUnits="userSpaceOnUse" gradientTransform="matrix(277.556,-316.315,89.567,78.592,-164.974,92.696)">
			<stop offset="0" stop-color="#35cdee"/>
			<stop offset=".518" stop-color="#117fdd"/>
			<stop offset="1" stop-color="#051f63"/>
		</linearGradient>
		<linearGradient id="g4" x2="1" gradientUnits="userSpaceOnUse" gradientTransform="matrix(2.226,-3.222,3.963,2.738,426.646,139.336)">
			<stop offset="0" stop-color="#35cdee"/>
			<stop offset=".518" stop-color="#117fdd"/>
			<stop offset="1" stop-color="#051f63"/>
		</linearGradient>
		<linearGradient id="g5" x2="1" gradientUnits="userSpaceOnUse" gradientTransform="matrix(.012,-0.017,.026,.018,211.562,373.657)">
			<stop offset="0" stop-color="#35cdee"/>
			<stop offset=".518" stop-color="#117fdd"/>
			<stop offset="1" stop-color="#051f63"/>
		</linearGradient>
		<linearGradient id="g6" x2="1" gradientUnits="userSpaceOnUse" gradientTransform="matrix(3.988,-5.772,5.719,3.951,215.364,368.494)">
			<stop offset="0" stop-color="#35cdee"/>
			<stop offset=".518" stop-color="#117fdd"/>
			<stop offset="1" stop-color="#051f63"/>
		</linearGradient>
		<linearGradient id="g7" x2="1" gradientUnits="userSpaceOnUse" gradientTransform="matrix(-0.014,.016,-0.022,-0.019,211.594,373.652)">
			<stop offset="0" stop-color="#35cdee"/>
			<stop offset=".518" stop-color="#117fdd"/>
			<stop offset="1" stop-color="#051f63"/>
		</linearGradient>
		<linearGradient id="g8" x2="1" gradientUnits="userSpaceOnUse" gradientTransform="matrix(74.48,129,-292.022,168.604,446.51,122.161)">
			<stop offset="0" stop-color="#35cdee"/>
			<stop offset=".518" stop-color="#117fdd"/>
			<stop offset="1" stop-color="#051f63"/>
		</linearGradient>
		<linearGradient id="g9" x2="1" gradientUnits="userSpaceOnUse" gradientTransform="matrix(-277.556,316.315,-89.567,-78.592,676.081,420.183)">
			<stop offset="0" stop-color="#f9931a"/>
			<stop offset="1" stop-color="#ed1b24"/>
		</linearGradient>
		<linearGradient id="g10" x2="1" gradientUnits="userSpaceOnUse" gradientTransform="matrix(-2.226,3.222,-3.963,-2.738,84.461,373.543)">
			<stop offset="0" stop-color="#35cdee"/>
			<stop offset=".518" stop-color="#117fdd"/>
			<stop offset="1" stop-color="#051f63"/>
		</linearGradient>
		<linearGradient id="g11" x2="1" gradientUnits="userSpaceOnUse" gradientTransform="matrix(-0.012,.017,-0.026,-0.018,299.545,139.223)">
			<stop offset="0" stop-color="#35cdee"/>
			<stop offset=".518" stop-color="#117fdd"/>
			<stop offset="1" stop-color="#051f63"/>
		</linearGradient>
		<linearGradient id="g12" x2="1" gradientUnits="userSpaceOnUse" gradientTransform="matrix(-3.988,5.772,-5.719,-3.951,295.744,144.385)">
			<stop offset="0" stop-color="#35cdee"/>
			<stop offset=".518" stop-color="#117fdd"/>
			<stop offset="1" stop-color="#051f63"/>
		</linearGradient>
		<linearGradient id="g13" x2="1" gradientUnits="userSpaceOnUse" gradientTransform="matrix(.014,-0.016,.022,.019,299.513,139.228)">
			<stop offset="0" stop-color="#35cdee"/>
			<stop offset=".518" stop-color="#117fdd"/>
			<stop offset="1" stop-color="#051f63"/>
		</linearGradient>
		<linearGradient id="g14" x2="1" gradientUnits="userSpaceOnUse" gradientTransform="matrix(-74.48,-129,292.022,-168.604,64.598,390.718)">
			<stop offset="0" stop-color="#f9931a"/>
			<stop offset="1" stop-color="#ed1b24"/>
		</linearGradient>
		<linearGradient id="g15" x2="1" gradientUnits="userSpaceOnUse" gradientTransform="matrix(.064,.112,-0.156,.09,221.615,255.418)">
			<stop offset="0" stop-color="#f9931a"/>
			<stop offset="1" stop-color="#ed1b24"/>
		</linearGradient>
	</defs>
	<style>
		.s0 { fill: url(#g1) } 
		.s1 { fill: url(#g2) } 
		.s2 { fill: url(#g3) } 
		.s3 { fill: url(#g4) } 
		.s4 { fill: url(#g5) } 
		.s5 { fill: url(#g6) } 
		.s6 { fill: url(#g7) } 
		.s7 { fill: url(#g8) } 
		.s8 { fill: url(#g9) } 
		.s9 { fill: url(#g10) } 
		.s10 { fill: url(#g11) } 
		.s11 { fill: url(#g12) } 
		.s12 { fill: url(#g13) } 
		.s13 { fill: url(#g14) } 
		.s14 { fill: url(#g15) } 
	</style>
	<g id="&lt;Group&gt;">
		<g id="&lt;Group&gt;">
			<path id="&lt;Path&gt;" class="s0" d="m72.64 313.19c-5.58-17.93-8.58-36.99-8.58-56.74 0-105.59 85.9-191.49 191.49-191.49 36.56 0 70.76 10.3 99.85 28.15 15.18-7.09 32.49-10.48 49.53-10.68-40.17-34.53-92.38-55.43-149.38-55.43-126.52 0-229.45 102.93-229.45 229.45 0 32.83 6.94 64.06 19.42 92.32 10.6-8.77 19.71-20.72 27.12-35.58z"/>
			<path id="&lt;Path&gt;" class="s1" d="m438.52 199.9c5.54 17.88 8.53 36.87 8.53 56.55 0 105.59-85.91 191.5-191.5 191.5-36.56 0-70.77-10.31-99.86-28.17-15.17 7.1-32.48 10.49-49.51 10.7 40.17 34.53 92.37 55.43 149.37 55.43 126.52 0 229.46-102.94 229.46-229.46 0-32.8-6.94-64.01-19.39-92.26-10.61 8.81-19.7 20.8-27.1 35.71z"/>
		</g>
		<g id="&lt;Group&gt;">
			<g id="&lt;Group&gt;">
				<g id="&lt;Group&gt;">
					<g id="&lt;Group&gt;">
						<g id="&lt;Group&gt;">
							<path id="&lt;Path&gt;" class="s2" d="m199.83 369.26q-0.03-0.01-0.03-0.01c22.65-29.4 37.41-67.69 47.36-111.56 0.61 4.2 8.14 26.13 11.26 33.3 4.43 10.14 16.09 32.93 17.77 35.93l0.01 0.02c0.45 0.82 0.71 1.27 0.71 1.27 68.27-172.7 125.06-188.08 159.92-188.82q0.03 0 0.06 0.01 0.8 0.06 1.6 0.15c0.65 0.06 1.27 0.14 1.94 0.22q-1.69-0.04-3.33 0.01-1.88 0.02-3.69 0.14-2.1 0.09-4.09 0.32-2.64 0.25-5.14 0.69-1.26 0.22-2.47 0.48c-7.34 1.49-13.79 3.98-19.54 7.3q-0.91 0.53-1.8 1.08-0.42 0.28-0.85 0.55l-0.08 0.05q-0.81 0.51-1.54 1.04-1.1 0.75-2.14 1.55-0.29 0.2-0.55 0.41-0.72 0.55-1.42 1.13-0.21 0.18-0.42 0.36-0.81 0.67-1.61 1.37c-5.63 5.02-10.42 10.99-14.55 17.66q-0.33 0.54-0.66 1.08-1.64 2.71-3.16 5.58-0.39 0.72-0.75 1.44c-4.93 9.58-8.87 20.21-12.33 31.26q-0.46 1.4-0.88 2.82c-1.79 5.86-3.46 11.82-5.11 17.79q-0.68 2.56-1.4 5.13l-0.77 2.88q-1.2 4.52-2.44 8.93-0.6 2.23-1.23 4.42-0.61 2.2-1.25 4.39-0.95 3.27-1.93 6.48-0.99 3.2-2.02 6.33-0.01 0.08-0.04 0.16-0.67 2.01-1.36 3.97c-3.35 9.57-7.14 18.44-11.83 26.07q-0.48 0.8-0.97 1.55-0.51 0.81-1.04 1.58-2.61 3.85-5.33 7.42-0.87 1.17-1.78 2.3-0.02 0.02-0.05 0.04-0.91 1.16-1.83 2.3-0.56 0.69-1.16 1.38-0.69 0.83-1.39 1.63-1.52 1.78-3.08 3.48c-31.11 33.49-79.73 52.36-113.59 44.94z"/>
							<path id="&lt;Path&gt;" class="s3" d="m429.32 140.24q1.99-0.23 4.09-0.32-2.08 0.11-4.09 0.32z"/>
							<path id="&lt;Path&gt;" class="s4" d="m211.57 373.65l0.02 0.01-0.02 0.01z"/>
							<path id="&lt;Path&gt;" class="s5" d="m222.45 372.08q3.55-0.61 7.28-1.37-3.72 0.78-7.28 1.37z"/>
							<path id="&lt;Path&gt;" class="s6" d="m211.57 373.65l0.02 0.01-0.02 0.01z"/>
							<path id="&lt;Path&gt;" class="s7" d="m333.63 359.22q7.47-4.68 14.49-10.51h0.01c6.34-4.8 12.47-10.68 18.46-18.92 29.89-38.33 30.9-92.01 51.04-136.62 8.01-16.96 19.57-34.4 36.51-47.65q0.04-0.04 0.08-0.07 1.96-1.53 4.02-2.98-0.27-0.05-0.53-0.1-8.85-1.68-17.11-2.61-0.04 0-0.08 0.01-0.04 0-0.09 0-1.69-0.04-3.33 0.01c-0.65 0-1.28 0.05-1.92 0.07-25.93-0.4-55.87 10.52-73.84 70.2q-0.02 0.07-0.04 0.13-0.5 1.54-0.99 3.09-0.46 1.4-0.88 2.82c-1.79 5.86-3.46 11.82-5.11 17.79q-0.68 2.56-1.4 5.13l-0.23 0.89c-7.14 23.69-17.4 54.2-28.39 71.15q-3.17 4.31-6.48 8.23c-18.77 18.37-2.66 2.86-1.4 1.65q-1.5 1.73-3.01 3.4c-31.11 33.49-79.73 52.36-113.61 44.92 0 0 6.96 4.08 19.14 7.63q0.51 0.19 1.02 0.35 4.23 1.39 9.33 2.39 0.73 0.15 1.47 0.28c3.42 0.62 7.1 1.09 10.98 1.41 18.18 1.89 41.24 0.45 67.1-9.78q0.65-0.24 1.31-0.49 1-0.41 2.03-0.83c6.43-2.63 12.79-5.78 18.99-9.49 0.82-0.47 1.63-0.89 2.45-1.38z"/>
						</g>
					</g>
					<g id="&lt;Group&gt;">
						<g id="&lt;Group&gt;">
							<path id="&lt;Path&gt;" class="s8" d="m311.28 143.62q0.03 0.01 0.02 0.01c-22.64 29.4-37.41 67.69-47.35 111.56-0.61-4.2-8.15-26.13-11.27-33.3-4.42-10.14-16.08-32.93-17.76-35.93l-0.01-0.02c-0.45-0.82-0.71-1.27-0.71-1.27-68.27 172.7-125.06 188.08-159.93 188.82q-0.03 0-0.06-0.01-0.79-0.06-1.59-0.16c-0.65-0.05-1.28-0.13-1.94-0.21q1.69 0.04 3.33-0.01 1.87-0.02 3.68-0.14 2.11-0.09 4.1-0.32 2.64-0.25 5.14-0.69 1.26-0.22 2.47-0.48c7.33-1.49 13.79-3.99 19.53-7.3q0.91-0.53 1.81-1.08 0.42-0.28 0.84-0.55l0.09-0.05q0.8-0.51 1.54-1.04 1.1-0.75 2.14-1.55 0.29-0.2 0.55-0.41 0.71-0.55 1.41-1.13 0.22-0.18 0.43-0.36 0.81-0.67 1.6-1.37c5.63-5.02 10.42-10.99 14.56-17.67q0.33-0.53 0.66-1.07 1.64-2.71 3.16-5.59 0.39-0.71 0.75-1.43c4.93-9.58 8.86-20.21 12.33-31.26q0.46-1.4 0.87-2.82c1.79-5.86 3.47-11.82 5.11-17.79q0.69-2.56 1.4-5.13l0.77-2.88q1.21-4.52 2.45-8.93 0.6-2.23 1.23-4.42 0.61-2.2 1.25-4.39 0.95-3.27 1.93-6.48 0.99-3.2 2.02-6.33 0.01-0.08 0.04-0.16 0.66-2.01 1.36-3.97c3.34-9.57 7.14-18.44 11.82-26.07q0.49-0.8 0.98-1.55 0.51-0.81 1.04-1.58 2.61-3.85 5.32-7.42 0.88-1.17 1.78-2.3 0.03-0.02 0.05-0.04 0.92-1.16 1.84-2.3 0.56-0.7 1.15-1.38 0.69-0.83 1.4-1.63 1.52-1.78 3.08-3.48c31.11-33.5 79.72-52.36 113.59-44.94z"/>
							<path id="&lt;Path&gt;" class="s9" d="m81.79 372.64q-1.99 0.23-4.1 0.32 2.08-0.11 4.1-0.32z"/>
							<path id="&lt;Path&gt;" class="s10" d="m299.54 139.23l-0.02-0.01 0.01-0.01z"/>
							<path id="&lt;Path&gt;" class="s11" d="m288.66 140.8q-3.55 0.61-7.28 1.37 3.71-0.78 7.28-1.37z"/>
							<path id="&lt;Path&gt;" class="s12" d="m299.54 139.23l-0.02-0.01 0.01-0.01z"/>
							<path id="&lt;Path&gt;" class="s13" d="m177.48 153.66q-7.47 4.67-14.5 10.51c-6.35 4.8-12.47 10.68-18.46 18.92-29.89 38.33-30.9 92.01-51.04 136.62-8.01 16.95-19.57 34.4-36.52 47.65q-0.04 0.03-0.08 0.07-1.95 1.53-4.01 2.98 0.26 0.05 0.52 0.1 8.85 1.68 17.12 2.61 0.04 0 0.07-0.01 0.05 0 0.1 0 1.69 0.04 3.33-0.01c0.65 0 1.28-0.05 1.91-0.07 25.94 0.4 55.88-10.52 73.85-70.2q0.02-0.07 0.04-0.13 0.5-1.54 0.99-3.09 0.46-1.4 0.87-2.82c1.79-5.86 3.47-11.82 5.11-17.79q0.69-2.56 1.4-5.13l0.24-0.89c7.13-23.69 17.39-54.2 28.38-71.15q3.18-4.31 6.49-8.23c18.76-18.37 2.66-2.86 1.4-1.65q1.49-1.73 3.01-3.4c31.11-33.49 79.73-52.36 113.6-44.92 0 0-6.95-4.08-19.13-7.64q-0.51-0.18-1.03-0.35-4.23-1.38-9.33-2.38-0.72-0.15-1.47-0.28c-3.41-0.62-7.09-1.09-10.98-1.41-18.18-1.89-41.23-0.45-67.09 9.78q-0.65 0.24-1.31 0.49-1.01 0.41-2.03 0.83c-6.43 2.63-12.79 5.78-18.99 9.49-0.82 0.47-1.63 0.89-2.46 1.38z"/>
						</g>
					</g>
					<path id="&lt;Path&gt;" class="s14" d="m221.52 255.62q0.05-0.1 0.1-0.2v0.01q-0.07 0.08-0.1 0.19z"/>
				</g>
			</g>
		</g>
	</g>
</svg>